<?xml version="1.0" encoding="UTF-8" standalone="no"?><!DOCTYPE svg PUBLIC "-//W3C//DTD SVG 1.1//EN" "http://www.w3.org/Graphics/SVG/1.1/DTD/svg11.dtd"><svg width="100%" height="100%" viewBox="0 0 217 74" version="1.1" xmlns="http://www.w3.org/2000/svg" xmlns:xlink="http://www.w3.org/1999/xlink" xml:space="preserve" xmlns:serif="http://www.serif.com/" style="fill-rule:evenodd;clip-rule:evenodd;stroke-linejoin:round;stroke-miterlimit:2;"><g><g><path d="M95.92,26.59l0,-14.16c0,-6.83 5.14,-9.38 11.88,-9.38c6.68,0 11.94,2.55 11.94,9.38l0,14.16c0,6.83 -5.26,9.38 -11.94,9.38c-6.73,0 -11.88,-2.54 -11.88,-9.38Zm20.87,-14.16c0,-4.96 -3.37,-7.24 -8.99,-7.24c-5.62,0 -8.93,2.28 -8.93,7.24l0,14.16c0,4.96 3.31,7.24 8.93,7.24c5.62,0 8.99,-2.28 8.99,-7.24l0,-14.16Z" style="fill:#333;fill-rule:nonzero;"/><path d="M149.02,34.05l-17.39,-25.73l0,26.4c0,0.67 -0.71,0.98 -1.48,0.98c-0.71,0 -1.48,-0.31 -1.48,-0.98l0,-30.73c0,-0.71 0.71,-0.94 1.48,-0.94c1.06,0 1.89,1.07 2.42,1.83l17.09,25.51l0,-26.4c0,-0.67 0.77,-0.94 1.48,-0.94c0.77,0 1.48,0.27 1.48,0.94l0,30.73c0,0.67 -0.71,0.98 -1.48,0.98c-0.88,0.01 -1.59,-0.89 -2.12,-1.65Z" style="fill:#333;fill-rule:nonzero;"/><path d="M182.3,34.05l-17.38,-25.73l-0,26.4c-0,0.67 -0.71,0.98 -1.48,0.98c-0.71,0 -1.48,-0.31 -1.48,-0.98l-0,-30.73c-0,-0.71 0.71,-0.94 1.48,-0.94c1.06,0 1.89,1.07 2.42,1.83l17.09,25.51l-0,-26.4c-0,-0.67 0.77,-0.94 1.48,-0.94c0.77,0 1.48,0.27 1.48,0.94l-0,30.73c-0,0.67 -0.71,0.98 -1.48,0.98c-0.89,0.01 -1.6,-0.89 -2.13,-1.65Z" style="fill:#333;fill-rule:nonzero;"/><path d="M204.3,21.46l-8.75,12.78c-0.41,0.63 -0.89,1.52 -1.77,1.52c-0.77,0 -1.66,-0.49 -1.66,-1.12c0,-0.18 0.12,-0.36 0.24,-0.58l10.17,-14.7l-9.99,-14.56c-0.24,-0.31 -0.36,-0.58 -0.36,-0.85c0,-0.58 0.71,-0.94 1.66,-0.94c0.83,0 1.42,0.85 1.89,1.56l8.57,12.64l8.63,-12.64c0.47,-0.62 1.01,-1.56 1.89,-1.56c0.95,0 1.66,0.36 1.66,0.94c0,0.27 -0.12,0.54 -0.36,0.85l-10.05,14.56l10.23,14.7c0.12,0.22 0.24,0.4 0.24,0.58c0,0.63 -0.83,1.12 -1.66,1.12c-0.89,-0 -1.36,-0.89 -1.77,-1.52l-8.81,-12.78Z" style="fill:#333;fill-rule:nonzero;"/></g><g><path d="M109.47,53.62c0,-2.28 -0.65,-3.95 -1.94,-4.97c-1.29,-1.02 -2.99,-1.53 -5.06,-1.53l-5.65,-0c-0.43,0.05 -0.64,0.26 -0.64,0.62l0,23.54c0,0.43 0.22,0.65 0.65,0.65c0.43,0 0.65,-0.22 0.65,-0.65l0,-11.13l4.94,0l5.4,10.53l0.01,0.02l0.01,0c0.01,0.01 0.05,0.06 0.14,0.24l0.14,0.38c0.05,0.07 0.11,0.16 0.19,0.27c0.08,0.12 0.17,0.2 0.25,0.25c0.08,0.05 0.18,0.07 0.27,0.07c0.19,0 0.35,-0.06 0.47,-0.18c0.12,-0.12 0.18,-0.28 0.18,-0.47c0,-0.12 -0.04,-0.25 -0.11,-0.39l-5.55,-10.8c3.75,-0.46 5.65,-2.63 5.65,-6.45Zm-1.3,0c-0,1.78 -0.51,3.11 -1.52,3.96c-1.01,0.85 -2.42,1.28 -4.18,1.28l-5,0l-0,-10.44l5,0c1.76,0 3.17,0.42 4.18,1.26c1.01,0.83 1.52,2.15 1.52,3.94Z" style="fill:#333;fill-rule:nonzero;"/><path d="M127.25,47.12c-0.43,0 -0.65,0.21 -0.65,0.62l0,17.38c0,1.9 -0.47,3.34 -1.39,4.28c-0.92,0.95 -2.26,1.42 -3.98,1.42c-1.72,0 -3.05,-0.48 -3.96,-1.42c-0.91,-0.95 -1.38,-2.39 -1.38,-4.28l0,-17.39c0,-0.41 -0.22,-0.62 -0.65,-0.62c-0.43,0 -0.65,0.21 -0.65,0.62l0,17.38c0,2.41 0.61,4.2 1.8,5.32c1.2,1.12 2.82,1.68 4.83,1.68c2.01,0 3.64,-0.57 4.85,-1.68c1.21,-1.12 1.82,-2.91 1.82,-5.32l0,-17.38c0.01,-0.41 -0.21,-0.61 -0.64,-0.61Z" style="fill:#333;fill-rule:nonzero;"/><path d="M147.3,47.12c-0.43,0 -0.65,0.21 -0.65,0.62l0,20.96l-10.27,-20.34c-0.46,-0.83 -0.82,-1.24 -1.08,-1.24c-0.43,0 -0.65,0.21 -0.65,0.62l0,23.54c0,0.43 0.22,0.65 0.65,0.65c0.43,0 0.65,-0.22 0.65,-0.65l0,-20.98l10.34,20.38c0.42,0.83 0.75,1.24 1.02,1.24c0.43,0 0.65,-0.22 0.65,-0.65l0,-23.54c-0.01,-0.41 -0.22,-0.61 -0.66,-0.61Z" style="fill:#333;fill-rule:nonzero;"/><path d="M166.38,47.12l-13.22,0c-0.19,0 -0.35,0.07 -0.47,0.2c-0.12,0.13 -0.18,0.28 -0.18,0.45c0,0.17 0.06,0.32 0.18,0.45c0.12,0.13 0.28,0.2 0.47,0.2l5.98,0l0,22.85c0,0.43 0.22,0.65 0.65,0.65c0.43,0 0.65,-0.22 0.65,-0.65l0,-22.85l5.95,-0c0.43,-0 0.65,-0.23 0.65,-0.68c-0.01,-0.42 -0.23,-0.62 -0.66,-0.62Z" style="fill:#333;fill-rule:nonzero;"/><path d="M172.23,47.12c-0.43,0 -0.65,0.21 -0.65,0.62l0,23.54c0,0.43 0.22,0.65 0.65,0.65c0.43,0 0.65,-0.22 0.65,-0.65l0,-23.55c0,-0.41 -0.22,-0.61 -0.65,-0.61Z" style="fill:#333;fill-rule:nonzero;"/><path d="M195.66,47.12c-0.27,0 -0.62,0.41 -1.08,1.24l-6.56,12.85l-6.53,-12.85c-0.46,-0.83 -0.82,-1.24 -1.08,-1.24c-0.43,0 -0.65,0.21 -0.65,0.62l0,23.54c0,0.43 0.22,0.65 0.65,0.65c0.43,0 0.65,-0.22 0.65,-0.65l0,-20.98l6.28,12.16c0.21,0.45 0.43,0.67 0.68,0.67c0.22,0 0.44,-0.22 0.68,-0.66l6.31,-12.16l0,20.97c0,0.43 0.22,0.65 0.65,0.65c0.43,0 0.65,-0.22 0.65,-0.65l0,-23.55c0,-0.41 -0.22,-0.61 -0.65,-0.61Z" style="fill:#333;fill-rule:nonzero;"/><path d="M215.89,70.62l-11.39,0l0,-10.47l5.37,-0c0.41,-0 0.62,-0.21 0.62,-0.62c0,-0.45 -0.21,-0.68 -0.62,-0.68l-5.37,-0l0,-10.43l11.39,-0c0.41,-0 0.62,-0.23 0.62,-0.68c0,-0.4 -0.21,-0.62 -0.62,-0.62l-12.04,-0c-0.43,-0 -0.65,0.22 -0.65,0.65l0,23.5c0,0.43 0.22,0.65 0.65,0.65l12.04,0c0.41,0 0.62,-0.21 0.62,-0.62c-0.01,-0.45 -0.22,-0.68 -0.62,-0.68Z" style="fill:#333;fill-rule:nonzero;"/></g><g><path d="M58.11,20.09l-18.78,20.99l0,-39.77l18.78,18.78Z" style="fill:#fff;fill-rule:nonzero;"/><path d="M58.11,20.09l-12.11,13.4l-6.67,-13.4" style="fill:#d1d1d1;fill-rule:nonzero;"/><path d="M39.33,1.31l18.77,18.78l-18.77,0l0,-18.78Z" style="fill:#b2b2b2;fill-rule:nonzero;"/></g><g><path d="M24.76,16.72l14.17,24.34l-37.83,-12.29l23.66,-12.05Z" style="fill:#fff;fill-rule:nonzero;"/><path d="M24.76,16.72l9.01,15.65l-14.81,2.2" style="fill:#d1d1d1;fill-rule:nonzero;"/><path d="M1.1,28.77l23.66,-12.05l-5.8,17.85c0,0 -17.74,-5.76 -17.86,-5.8Z" style="fill:#b2b2b2;fill-rule:nonzero;"/></g><g><path d="M11.25,47.38l27.53,-5.94l-23.38,32.17l-4.15,-26.23Z" style="fill:#fff;fill-rule:nonzero;"/><path d="M11.25,47.38l17.67,-3.73l-2.48,14.77" style="fill:#d1d1d1;fill-rule:nonzero;"/><path d="M15.4,73.61l-4.15,-26.23l15.19,11.03c0,0.01 -10.96,15.1 -11.04,15.2Z" style="fill:#b2b2b2;fill-rule:nonzero;"/></g><g><path d="M36.25,69.71l2.85,-28.02l23.37,32.18l-26.22,-4.16Z" style="fill:#fff;fill-rule:nonzero;"/><path d="M36.25,69.71l1.91,-17.96l13.27,6.92" style="fill:#d1d1d1;fill-rule:nonzero;"/><path d="M62.47,73.87l-26.23,-4.16l15.19,-11.03c0,-0.01 10.97,15.09 11.04,15.19Z" style="fill:#b2b2b2;fill-rule:nonzero;"/></g><g><path d="M65.2,52.84l-25.76,-11.37l37.82,-12.29l-12.06,23.66Z" style="fill:#fff;fill-rule:nonzero;"/><path d="M65.2,52.84l-16.49,-7.37l10.69,-10.49" style="fill:#d1d1d1;fill-rule:nonzero;"/><path d="M77.26,29.18l-12.06,23.66l-5.8,-17.85c-0,-0.01 17.74,-5.77 17.86,-5.81Z" style="fill:#b2b2b2;fill-rule:nonzero;"/></g><path d="M77.49,28.79c-0.13,-0.15 -0.33,-0.21 -0.52,-0.15l-0.02,0.01l-36.46,11.85l17.87,-19.98l0,-0.01c0.02,-0.02 0.04,-0.04 0.05,-0.07c0,0 0,-0.01 0.01,-0.01c0.01,-0.02 0.02,-0.03 0.03,-0.05l0,-0.01c0,-0.01 0.01,-0.02 0.01,-0.03c0.01,-0.02 0.01,-0.04 0.01,-0.05l0,-0.11c0,-0.03 0,-0.05 -0.01,-0.08c0,-0.01 0,-0.01 -0.01,-0.02c-0.01,-0.02 -0.01,-0.04 -0.02,-0.06c0,-0.01 -0.01,-0.02 -0.01,-0.03c-0.01,-0.02 -0.02,-0.03 -0.03,-0.05c0,-0.01 -0.01,-0.02 -0.01,-0.02c-0.02,-0.02 -0.03,-0.05 -0.05,-0.07l-18.77,-18.77c-0.14,-0.14 -0.35,-0.18 -0.53,-0.11c-0.18,0.08 -0.3,0.25 -0.3,0.45l0,38.36l-13.47,-23.17l-0,-0.01c-0.01,-0.02 -0.03,-0.05 -0.05,-0.07l-0.06,-0.06c-0.01,-0.01 -0.02,-0.01 -0.02,-0.02c-0.02,-0.01 -0.03,-0.02 -0.05,-0.03c-0.01,0 -0.02,-0.01 -0.03,-0.01c-0.02,-0.01 -0.04,-0.02 -0.06,-0.02c-0.01,0 -0.01,0 -0.02,-0.01c-0.03,-0.01 -0.05,-0.01 -0.08,-0.02l-0.11,0c-0.02,0 -0.04,0.01 -0.06,0.01c-0.01,0 -0.02,0 -0.03,0.01c-0.03,0.01 -0.05,0.02 -0.08,0.03l-23.65,12.07c-0.17,0.09 -0.28,0.27 -0.26,0.47c0.02,0.2 0.15,0.36 0.33,0.42l0.02,0.01l36.46,11.85l-26.2,5.66l-0.01,0c-0.03,0.01 -0.05,0.01 -0.08,0.03c-0,0 -0.01,0 -0.01,0.01c-0.02,0.01 -0.03,0.02 -0.05,0.03l-0.01,0.01c-0.01,0.01 -0.02,0.01 -0.02,0.02c-0.01,0.01 -0.03,0.02 -0.04,0.04c-0.01,0.01 -0.01,0.01 -0.02,0.02c-0.01,0.01 -0.03,0.03 -0.04,0.05c-0,0.01 -0.01,0.01 -0.01,0.02c-0.02,0.02 -0.03,0.05 -0.04,0.07c-0,0.01 -0,0.01 -0.01,0.02c-0.01,0.02 -0.01,0.04 -0.02,0.06c-0,0.01 -0,0.02 -0.01,0.03c-0,0.02 -0.01,0.04 -0.01,0.06l-0,0.03c-0,0.03 -0,0.06 0.01,0.09l4.15,26.23c0.03,0.19 0.17,0.35 0.37,0.4c0.19,0.05 0.39,-0.03 0.51,-0.19l0.01,-0.02l22.52,-31.06l-2.71,26.66l-0,0.11c-0,0.02 -0,0.04 0.01,0.06l-0,0.01c-0,0.01 0.01,0.02 0.01,0.03c0.01,0.02 0.01,0.03 0.02,0.05c-0,0.01 0.01,0.02 0.01,0.03c0.01,0.02 0.02,0.04 0.03,0.05c-0,0.01 0.01,0.01 0.01,0.02l0.07,0.07c0.02,0.01 0.03,0.03 0.05,0.04c0.01,0.01 0.02,0.01 0.02,0.01c0.02,0.01 0.03,0.02 0.05,0.02c0.01,0 0.02,0.01 0.03,0.01c0.03,0.01 0.05,0.02 0.08,0.02l26.23,4.16c0.19,0.03 0.39,-0.06 0.49,-0.23c0.1,-0.17 0.09,-0.38 -0.02,-0.54l-0.01,-0.02l-22.53,-31.01l24.52,10.82l0.01,-0c0.03,0.01 0.05,0.02 0.08,0.03l0.01,-0c0.02,-0 0.04,0.01 0.06,0.01l0.13,-0c0.02,-0 0.04,-0.01 0.06,-0.02c0.01,-0 0.01,-0 0.02,-0.01c0.03,-0.01 0.05,-0.02 0.07,-0.03c0.01,-0 0.01,-0.01 0.02,-0.01c0.02,-0.01 0.04,-0.02 0.05,-0.04l0.08,-0.08c0.02,-0.02 0.03,-0.05 0.05,-0.07l12.06,-23.66c0.08,-0.18 0.05,-0.39 -0.07,-0.54Zm-31.48,3.96l-6.01,-12.06l16.9,-0l-10.89,12.06Zm-6.31,-30.15l17.12,17.12l-17.12,-0l0,-17.12Zm0,19.66l5.65,11.35l-5.65,6.31l0,-17.66Zm-37.26,6.55l21,-10.7l0.58,-0.29l-5.3,16.28c-2.32,-0.76 -12.82,-4.16 -16.28,-5.29Zm22.52,-10.76l8.11,14.09l-13.33,1.98l5.22,-16.07Zm8.72,14.97l4.26,7.32l-16.8,-5.46l12.54,-1.86Zm-17.82,39.33l-3.68,-23.28l-0.1,-0.64l13.84,10.07c-1.44,1.98 -7.92,10.91 -10.06,13.85Zm-3.28,-24.74l15.91,-3.36l-2.23,13.29l-13.68,-9.93Zm14.84,8.83l2.1,-12.5l8.28,-1.79l-10.38,14.29Zm34,16.61l-23.28,-3.69l-0.64,-0.1l13.85,-10.06c1.44,1.97 7.92,10.9 10.07,13.85Zm-24.55,-4.53l1.72,-16.17l11.95,6.23l-13.67,9.94Zm1.75,-17.25l0.86,-8.43l10.38,14.29l-11.24,-5.86Zm2.03,-9.8l16.8,-5.46l-9.05,8.88l-7.75,-3.42Zm8.77,3.78l9.62,-9.44l5.22,16.07l-14.84,-6.63Zm16.03,5.68l-0.29,0.58l-5.29,-16.28c2.33,-0.76 12.82,-4.17 16.29,-5.29l-10.71,20.99Z" style="fill:#333;fill-rule:nonzero;"/></g></svg>